<?xml version="1.0" standalone="no"?>
<!DOCTYPE svg PUBLIC "-//W3C//DTD SVG 20010904//EN"
 "http://www.w3.org/TR/2001/REC-SVG-20010904/DTD/svg10.dtd">
<svg version="1.0" xmlns="http://www.w3.org/2000/svg"
 width="500.000000pt" height="171.000000pt" viewBox="0 0 500.000000 171.000000"
 preserveAspectRatio="xMidYMid meet">

<g transform="translate(0.000000,171.000000) scale(0.100000,-0.100000)"
fill="#eeba2b" stroke="none">
<path d="M3850 1663 c-315 -51 -651 -175 -867 -319 -168 -112 -274 -246 -244
-310 19 -43 72 -57 188 -51 57 3 111 11 120 16 13 8 -14 9 -92 5 -92 -6 -116
-4 -143 10 -67 35 -45 102 70 212 174 167 507 323 846 396 130 28 316 30 388
5 178 -62 141 -224 -108 -483 -96 -99 -100 -102 -210 -149 -62 -26 -191 -86
-286 -133 -95 -47 -175 -82 -178 -79 -4 3 21 124 55 269 64 273 78 373 52 373
-10 0 -21 -34 -37 -120 -18 -96 -61 -295 -119 -540 -2 -13 -34 -37 -82 -65
-339 -191 -549 -369 -502 -426 38 -46 215 22 484 186 242 148 453 301 645 470
58 50 121 100 140 110 91 46 489 179 720 241 25 6 39 14 33 16 -22 8 -405
-104 -615 -180 -94 -34 -118 -35 -81 -6 44 36 178 211 208 273 73 145 35 230
-120 271 -55 14 -202 19 -265 8z m-22 -692 c-4 -11 -170 -149 -276 -229 -148
-112 -270 -193 -277 -182 -3 5 5 48 19 94 l26 84 82 43 c99 51 410 198 421
199 5 0 7 -4 5 -9z m-558 -278 c-1 -5 -7 -36 -14 -70 -9 -43 -10 -65 -3 -72 6
-6 9 -12 6 -15 -21 -19 -265 -158 -345 -197 -121 -58 -161 -69 -170 -45 -19
49 164 202 420 352 91 54 106 60 106 47z"/>
<path d="M1685 1283 c-89 -47 -298 -249 -397 -383 -46 -62 -153 -227 -286
-440 -27 -43 -27 -36 -2 115 30 182 26 218 -22 193 -10 -4 -45 -58 -79 -119
-34 -60 -64 -108 -66 -106 -2 3 5 38 17 78 35 127 51 249 40 307 -18 95 -51
122 -149 122 -255 0 -721 -390 -725 -608 -1 -36 3 -56 12 -59 8 -3 12 7 12 31
0 96 80 227 217 356 208 194 429 302 526 255 114 -54 89 -252 -94 -753 -62
-168 -79 -226 -71 -234 8 -8 15 -8 21 -3 5 6 57 111 115 235 127 268 197 403
211 407 7 2 4 -36 -7 -104 -10 -59 -19 -132 -21 -163 -2 -50 0 -55 20 -58 17
-3 32 16 89 110 102 170 244 383 318 474 120 149 336 339 376 332 24 -5 24
-96 1 -186 -40 -155 -181 -565 -271 -791 -82 -206 -100 -266 -71 -235 34 35
216 489 309 774 98 298 118 411 82 455 -16 19 -67 18 -105 -2z"/>
<path d="M4678 1125 c-6 -14 -8 -28 -4 -33 9 -8 36 26 36 45 0 22 -20 14 -32
-12z"/>
<path d="M4799 1073 c-15 -9 -34 -31 -43 -50 -14 -30 -67 -73 -90 -73 -9 0 -3
51 10 84 11 29 -18 15 -34 -17 -13 -28 -67 -77 -84 -77 -7 0 -8 13 -5 34 7 43
-9 60 -40 43 -11 -7 -30 -18 -42 -25 -19 -11 -21 -10 -21 9 0 17 -3 19 -13 10
-18 -14 -53 -118 -44 -128 4 -3 30 19 58 50 28 31 55 57 60 57 6 0 7 -15 3
-35 -9 -47 16 -56 69 -26 37 21 41 22 49 6 12 -20 47 -14 88 15 18 13 31 16
41 9 25 -15 93 -10 127 11 28 17 77 79 68 87 -2 2 -24 -17 -49 -42 -40 -41
-50 -46 -84 -43 -52 4 -58 33 -9 42 41 8 66 29 66 57 0 24 -44 26 -81 2z m51
-17 c0 -15 -37 -32 -47 -22 -9 8 17 36 33 36 8 0 14 -6 14 -14z"/>
<path d="M4385 1035 c-14 -25 -36 -65 -50 -90 -33 -58 -48 -58 -40 -1 12 75
-24 67 -66 -15 -10 -21 -24 -39 -29 -39 -6 0 -10 25 -10 55 0 53 -13 74 -23
38 -33 -119 0 -187 55 -113 25 35 38 38 38 10 0 -31 28 -36 55 -10 23 21 83
127 104 183 17 43 -6 32 -34 -18z"/>
<path d="M4050 955 c-63 -23 -94 -107 -46 -125 45 -17 94 8 122 62 18 34 18
43 -2 62 -18 18 -26 18 -74 1z m50 -36 c0 -21 -51 -79 -69 -79 -15 0 -14 53 2
72 15 20 49 38 59 32 5 -3 8 -14 8 -25z"/>
<path d="M2156 943 c-14 -49 -74 -314 -80 -354 -5 -36 -3 -51 12 -69 22 -27
46 -22 93 17 23 19 33 23 42 14 6 -6 26 -11 45 -11 61 0 125 91 89 127 -24 25
-106 -2 -126 -42 -22 -42 -79 -95 -102 -95 -15 0 -19 7 -19 34 0 33 27 175 54
284 27 111 27 112 12 112 -8 0 -17 -8 -20 -17z m176 -313 c-2 -28 -58 -84 -72
-75 -19 11 -10 56 15 81 32 31 61 28 57 -6z"/>
<path d="M2468 675 c-37 -25 -38 -25 -38 -5 0 12 -5 20 -11 18 -15 -5 -59
-127 -49 -133 5 -3 32 20 61 50 29 30 56 55 61 55 5 0 7 -12 4 -27 -14 -64 30
-68 99 -9 50 43 39 59 -12 17 -21 -17 -41 -31 -46 -31 -5 0 -7 19 -5 42 4 53
-12 58 -64 23z"/>
<path d="M1936 632 c-3 -5 -14 -33 -25 -63 -20 -53 -52 -86 -72 -73 -6 3 -9
17 -6 30 8 42 -15 38 -60 -11 -24 -26 -47 -45 -50 -42 -9 10 9 48 39 83 24 27
35 33 55 28 19 -5 24 -3 21 7 -7 22 -46 22 -78 -1 -38 -27 -69 -71 -76 -109
-6 -30 -5 -31 27 -31 22 0 42 9 61 27 26 25 29 26 41 9 10 -14 21 -16 55 -10
38 6 46 12 64 48 36 72 98 123 98 81 0 -8 5 -15 10 -15 6 0 10 11 10 25 0 28
-25 34 -63 14 -16 -9 -22 -9 -25 0 -4 13 -19 15 -26 3z"/>
</g>
</svg>
