<?xml version="1.0" standalone="no"?>
<!DOCTYPE svg PUBLIC "-//W3C//DTD SVG 20010904//EN"
 "http://www.w3.org/TR/2001/REC-SVG-20010904/DTD/svg10.dtd">
<svg version="1.0" xmlns="http://www.w3.org/2000/svg"
 width="150.000000pt" height="150.000000pt" viewBox="0 0 500.000000 500.000000"
 preserveAspectRatio="xMidYMid meet">

<g transform="translate(0.000000,500.000000) scale(0.100000,-0.100000)"
fill="#9b1c31" stroke="none">
<path d="M2633 4878 c-53 -58 -66 -123 -32 -154 43 -39 51 -69 40 -148 -33
-236 -155 -336 -316 -261 -57 27 -154 129 -194 204 -30 57 -32 68 -26 116 4
33 2 62 -4 74 -13 24 -100 86 -109 77 -3 -4 -8 -33 -10 -66 -5 -63 3 -75 73
-124 41 -28 67 -97 72 -190 4 -71 1 -86 -19 -120 -15 -26 -40 -48 -71 -64 -44
-23 -51 -24 -102 -13 -92 21 -251 139 -280 207 -15 36 -46 60 -94 74 -35 10
-36 8 -20 -23 19 -37 51 -66 95 -88 47 -22 89 -69 123 -136 27 -54 67 -192 75
-263 14 -112 14 -112 46 -95 45 23 166 53 295 72 173 26 783 26 965 0 148 -21
265 -51 301 -76 l25 -19 13 97 c21 163 85 324 153 389 13 11 39 28 58 36 40
16 60 37 85 84 l16 34 -23 -7 c-55 -17 -95 -48 -114 -88 -34 -73 -199 -188
-291 -202 -45 -7 -116 25 -146 66 -64 88 -23 299 67 342 21 10 41 28 47 44 11
30 3 133 -10 133 -15 0 -90 -60 -107 -85 -14 -21 -14 -30 -4 -55 17 -42 6 -88
-38 -156 -80 -123 -189 -204 -276 -204 -55 0 -119 34 -151 80 -34 49 -63 143
-71 229 -6 65 -6 67 31 111 29 35 36 50 31 72 -6 31 -62 118 -75 118 -4 0 -17
-10 -28 -22z"/>
<path d="M2425 3923 c-145 -11 -272 -27 -350 -44 -108 -23 -185 -48 -185 -59
0 -24 212 -72 403 -91 l118 -12 20 -38 c10 -21 27 -69 37 -106 16 -63 17 -174
17 -1553 0 -1563 1 -1519 -45 -1643 -24 -64 -95 -148 -140 -167 -24 -10 -30
-19 -30 -41 l0 -29 383 2 382 3 3 22 c2 16 -5 26 -25 37 -43 22 -111 100 -134
154 -57 132 -54 47 -54 1662 0 1379 1 1490 17 1553 10 37 27 84 37 105 l19 38
124 13 c197 20 408 67 408 91 0 27 -276 83 -499 100 -123 9 -408 11 -506 3z"/>
<path d="M3020 3292 l0 -30 168 -4 c137 -4 177 -9 226 -27 194 -70 344 -239
441 -497 71 -189 109 -407 126 -724 25 -486 -48 -907 -203 -1167 -47 -79 -153
-183 -220 -215 -100 -49 -156 -58 -355 -58 l-183 0 0 -36 0 -35 293 3 c286 4
294 4 372 31 317 106 518 406 605 903 45 257 52 641 16 881 -68 454 -253 758
-551 904 -164 80 -221 91 -497 96 l-238 5 0 -30z"/>
<path d="M540 3156 c0 -9 22 -21 56 -31 73 -21 134 -81 155 -150 12 -42 14
-210 14 -1060 0 -949 -1 -1013 -18 -1057 -29 -76 -124 -148 -194 -148 -7 0
-13 -7 -13 -15 0 -13 49 -15 380 -15 331 0 380 2 380 15 0 8 -8 15 -17 15 -34
0 -118 47 -150 83 -18 20 -37 53 -42 74 -7 25 -11 329 -10 908 l1 870 75 -225
c41 -124 186 -565 322 -980 l247 -755 39 0 39 0 254 775 255 775 3 135 3 135
-132 -395 c-73 -217 -197 -592 -276 -833 -79 -241 -147 -434 -151 -430 -4 4
-99 287 -210 628 -111 341 -267 817 -346 1058 -79 242 -144 452 -144 469 0 43
53 92 120 112 29 9 61 16 71 16 28 0 49 11 49 26 0 12 -62 14 -380 14 -323 0
-380 -2 -380 -14z"/>
</g>
</svg>
